<svg xmlns="http://www.w3.org/2000/svg" width="383" height="35" viewBox="0 0 383 35">
  <g id="グループ_18" data-name="グループ 18" transform="translate(-810 -565)">
    <path id="多角形_1" data-name="多角形 1" d="M13.229,0,26.458,37.5H0Z" transform="translate(1193 569.271) rotate(90)" fill="#320c0a"/>
    <rect id="長方形_66" data-name="長方形 66" width="300" height="5" transform="translate(856.5 580)" fill="#320c0a"/>
    <path id="前面オブジェクトで型抜き_1" data-name="前面オブジェクトで型抜き 1" d="M0,35V30.625L15,17.5,0,4.375V0L20,17.5,0,35Z" transform="translate(840 565)" fill="#320c0a"/>
    <path id="前面オブジェクトで型抜き_2" data-name="前面オブジェクトで型抜き 2" d="M0,35V30.625L15,17.5,0,4.375V0L20,17.5,0,35Z" transform="translate(834 565)" fill="#320c0a"/>
    <path id="前面オブジェクトで型抜き_3" data-name="前面オブジェクトで型抜き 3" d="M0,35V30.625L15,17.5,0,4.375V0L20,17.5,0,35Z" transform="translate(828 565)" fill="#320c0a"/>
    <path id="前面オブジェクトで型抜き_4" data-name="前面オブジェクトで型抜き 4" d="M0,35V30.625L15,17.5,0,4.375V0L20,17.5,0,35Z" transform="translate(822 565)" fill="#320c0a"/>
    <path id="前面オブジェクトで型抜き_5" data-name="前面オブジェクトで型抜き 5" d="M0,35V30.625L15,17.5,0,4.375V0L20,17.5,0,35Z" transform="translate(816 565)" fill="#320c0a"/>
    <path id="前面オブジェクトで型抜き_6" data-name="前面オブジェクトで型抜き 6" d="M0,35V30.625L15,17.5,0,4.375V0L20,17.5,0,35Z" transform="translate(810 565)" fill="#320c0a"/>
  </g>
</svg>
